<?xml version="1.0" encoding="utf-8"?>
<!-- Generator: Adobe Illustrator 27.3.1, SVG Export Plug-In . SVG Version: 6.00 Build 0)  -->
<svg version="1.1" id="Layer_1" xmlns="http://www.w3.org/2000/svg" xmlns:xlink="http://www.w3.org/1999/xlink" x="0px" y="0px"
	 viewBox="0 0 272 192" style="enable-background:new 0 0 272 192;" xml:space="preserve">
<style type="text/css">
	.st0{fill-rule:evenodd;clip-rule:evenodd;}
</style>
<path class="st0" d="M152.9,2.4l88.7,44.7c4.1,2.1,4.2,7.9,0.1,10.1l-115.1,61.3c-6.4,3.4-14.1,3.5-20.6,0.2L33.7,82.2
	C24.8,78.7,15,85.2,15,95c0,7.9,4.4,15.1,11.4,18.6l72.5,36.5c4.4-4.5,10.6-7.4,17.4-7.4c6.6,0,12.6,2.7,17,7l90.3-48
	c-0.2-1.4-0.4-2.9-0.4-4.3c0-13.6,10.9-24.6,24.4-24.6s24.4,11,24.4,24.6c0,13.6-10.9,24.6-24.4,24.6c-6.6,0-12.6-2.6-16.9-6.9
	l-90.3,48.1c0.2,1.4,0.4,2.8,0.4,4.2c0,13.6-10.9,24.6-24.4,24.6s-24.4-11-24.4-24.6c0-1.3,0.1-2.5,0.3-3.7l-73.5-37.1
	C7.2,120.9,0,109.1,0,96.2V89c0-9.8,5.4-18.8,14-23.4l118.3-63C138.8-0.8,146.4-0.9,152.9,2.4z M116.3,176.9c5.2,0,9.4-4.2,9.4-9.5
	c0-5.2-4.2-9.5-9.4-9.5s-9.4,4.2-9.4,9.5C106.9,172.6,111.1,176.9,116.3,176.9z M257,97.4c0,5.2-4.2,9.5-9.4,9.5
	c-5.2,0-9.4-4.2-9.4-9.5c0-5.2,4.2-9.5,9.4-9.5C252.8,88,257,92.2,257,97.4z"/>
</svg>
